<?xml version="1.0" standalone="no"?>
<!DOCTYPE svg PUBLIC "-//W3C//DTD SVG 20010904//EN"
 "http://www.w3.org/TR/2001/REC-SVG-20010904/DTD/svg10.dtd">
<svg version="1.0" xmlns="http://www.w3.org/2000/svg"
 width="512.000000pt" height="512.000000pt" viewBox="0 0 512.000000 512.000000"
 preserveAspectRatio="xMidYMid meet">
<metadata>
Created by potrace 1.14, written by Peter Selinger 2001-2017
</metadata>
<g transform="translate(0.000000,512.000000) scale(0.100000,-0.100000)"
fill="#000000" stroke="none">
<path d="M2 4833 c-1 -157 1 -290 4 -295 3 -4 14 -4 24 2 13 7 20 6 23 -3 3
-9 8 -8 22 3 17 13 18 13 10 0 -8 -13 -7 -13 8 -1 14 11 17 11 17 0 0 -11 2
-11 10 1 6 9 10 10 10 3 0 -12 37 -12 58 1 7 4 12 2 12 -5 0 -8 4 -8 15 1 12
10 15 10 15 0 0 -9 4 -9 17 1 14 12 15 12 9 1 -7 -11 -4 -12 13 -3 12 7 21 8
21 2 0 -11 39 -9 58 3 7 4 12 2 12 -5 0 -8 4 -8 15 1 12 10 15 10 15 0 0 -9 4
-9 17 1 14 12 15 12 9 1 -7 -11 -4 -12 13 -3 12 7 21 8 21 2 0 -11 39 -9 58 3
7 4 12 2 12 -5 0 -8 4 -8 15 1 12 10 15 10 15 0 0 -9 4 -9 13 -2 7 7 18 7 27
2 16 -10 22 -50 7 -50 -5 0 -4 -7 3 -15 10 -12 10 -15 -1 -15 -11 0 -11 -2 1
-10 12 -8 13 -11 1 -19 -9 -6 -10 -11 -2 -15 7 -5 8 -13 1 -25 -5 -10 -7 -21
-4 -23 11 -12 13 -52 3 -65 -9 -9 -8 -13 0 -13 8 0 9 -6 2 -18 -6 -11 -6 -24
0 -35 7 -12 6 -17 -3 -17 -9 0 -9 -3 2 -10 12 -8 13 -11 1 -19 -9 -6 -10 -11
-2 -15 6 -4 8 -14 3 -24 -7 -16 -8 -36 -2 -54 6 -20 5 -34 -5 -40 -6 -5 -5 -8
4 -8 11 0 11 -3 1 -15 -7 -8 -8 -15 -3 -15 5 0 9 -9 9 -20 0 -11 -5 -20 -11
-20 -5 0 -3 -5 5 -10 12 -8 13 -11 1 -19 -9 -6 -10 -11 -2 -15 7 -5 8 -13 1
-25 -5 -10 -7 -21 -4 -24 11 -10 11 -42 1 -54 -6 -9 -6 -13 3 -13 10 0 10 -3
1 -14 -8 -10 -9 -16 -1 -21 7 -4 7 -12 0 -26 -8 -14 -7 -19 1 -19 9 0 9 -3 0
-14 -8 -10 -9 -16 -1 -21 7 -4 7 -12 0 -26 -8 -14 -7 -19 1 -19 9 0 9 -3 0
-14 -8 -10 -9 -16 -1 -21 7 -4 7 -12 0 -26 -8 -14 -7 -19 1 -19 9 0 9 -3 0
-14 -8 -10 -9 -16 -1 -21 7 -4 7 -12 0 -26 -8 -14 -7 -19 1 -19 9 0 9 -3 0
-14 -8 -10 -9 -16 -1 -21 7 -4 7 -12 0 -26 -8 -14 -7 -19 1 -19 9 0 9 -3 0
-14 -8 -10 -9 -16 -1 -21 7 -4 7 -12 0 -26 -8 -14 -7 -19 1 -19 9 0 9 -3 0
-14 -8 -10 -9 -16 -1 -21 7 -4 7 -12 0 -26 -8 -14 -7 -19 1 -19 9 0 9 -3 0
-14 -8 -9 -8 -16 -2 -20 6 -4 7 -16 3 -29 -7 -21 -8 -42 -2 -59 6 -20 5 -34
-5 -40 -6 -5 -5 -8 4 -8 11 0 11 -3 1 -15 -7 -8 -8 -15 -3 -15 5 0 9 -9 9 -20
0 -11 -5 -20 -11 -20 -5 0 -3 -5 5 -10 12 -8 13 -11 1 -19 -9 -6 -10 -11 -2
-15 7 -5 8 -13 1 -25 -5 -10 -7 -21 -4 -23 11 -12 13 -52 3 -65 -9 -9 -8 -13
0 -13 8 0 9 -6 2 -18 -6 -11 -6 -24 0 -35 7 -12 6 -17 -3 -17 -9 0 -9 -3 2
-10 12 -8 13 -11 1 -19 -9 -6 -10 -11 -2 -15 6 -4 8 -14 3 -24 -7 -16 -8 -36
-2 -54 6 -20 5 -34 -5 -40 -6 -5 -5 -8 4 -8 11 0 11 -3 1 -15 -7 -8 -8 -15 -3
-15 5 0 9 -9 9 -20 0 -11 -5 -20 -11 -20 -5 0 -3 -5 5 -10 12 -8 13 -11 1 -19
-9 -6 -10 -11 -2 -15 7 -5 8 -13 1 -25 -5 -10 -7 -21 -4 -23 11 -12 13 -52 3
-65 -9 -9 -8 -13 0 -13 8 0 9 -6 2 -18 -6 -11 -6 -24 0 -35 7 -12 6 -17 -3
-17 -9 0 -9 -3 2 -10 12 -8 13 -11 1 -19 -9 -6 -10 -11 -2 -15 6 -4 8 -14 3
-24 -7 -16 -8 -36 -2 -54 6 -20 5 -34 -5 -40 -6 -5 -5 -8 4 -8 11 0 11 -3 1
-15 -7 -8 -8 -15 -3 -15 5 0 9 -9 9 -20 0 -11 -5 -20 -11 -20 -5 0 -3 -5 5
-10 12 -8 13 -11 1 -19 -9 -6 -10 -11 -2 -15 7 -5 8 -13 1 -25 -5 -10 -7 -21
-4 -24 11 -10 11 -42 1 -54 -6 -9 -6 -13 3 -13 10 0 10 -3 1 -14 -8 -10 -9
-16 -1 -21 7 -4 7 -12 0 -26 -8 -14 -7 -19 1 -19 9 0 9 -3 0 -14 -8 -10 -9
-16 -1 -21 7 -4 7 -12 0 -26 -8 -14 -7 -19 1 -19 9 0 9 -3 0 -14 -8 -10 -9
-16 -1 -21 7 -4 7 -12 0 -26 -8 -14 -7 -19 1 -19 9 0 9 -3 0 -14 -8 -10 -9
-16 -1 -21 7 -4 7 -12 0 -26 -8 -14 -7 -19 1 -19 9 0 9 -3 0 -14 -8 -10 -9
-16 -1 -21 7 -4 7 -12 0 -26 -8 -14 -7 -19 1 -19 9 0 9 -3 0 -14 -8 -10 -9
-16 -1 -21 7 -4 7 -12 0 -26 -8 -14 -7 -19 1 -19 9 0 9 -3 0 -14 -8 -10 -9
-16 -1 -21 7 -4 7 -12 0 -26 -8 -14 -7 -19 1 -19 9 0 9 -3 0 -14 -8 -9 -8 -16
-2 -20 6 -4 7 -16 3 -29 -7 -21 -8 -42 -2 -59 6 -20 5 -34 -5 -40 -6 -5 -5 -8
4 -8 11 0 11 -3 1 -15 -7 -8 -8 -15 -3 -15 5 0 9 -9 9 -20 0 -11 -5 -20 -11
-20 -5 0 -3 -5 5 -10 12 -8 13 -11 1 -19 -9 -6 -10 -11 -2 -15 7 -5 8 -13 1
-25 -5 -10 -7 -21 -4 -23 11 -12 13 -52 3 -65 -9 -9 -8 -13 0 -13 8 0 9 -6 2
-18 -6 -11 -6 -24 0 -35 7 -12 6 -17 -3 -17 -9 0 -9 -3 2 -10 12 -8 13 -11 1
-19 -9 -6 -10 -11 -2 -15 6 -4 8 -14 3 -24 -7 -16 -8 -36 -2 -54 6 -20 5 -34
-5 -40 -6 -5 -5 -8 4 -8 11 0 11 -3 1 -15 -7 -8 -8 -15 -3 -15 5 0 9 -9 9 -20
0 -11 -5 -20 -11 -20 -5 0 -3 -5 5 -10 12 -8 13 -11 1 -19 -9 -6 -10 -11 -2
-15 7 -5 8 -13 1 -25 -5 -10 -7 -21 -4 -23 11 -12 13 -52 3 -65 -9 -9 -8 -13
0 -13 8 0 9 -6 2 -18 -6 -11 -6 -24 0 -35 7 -12 6 -17 -3 -17 -9 0 -9 -3 2
-10 12 -8 13 -11 1 -19 -9 -6 -10 -11 -2 -15 6 -4 8 -14 3 -24 -7 -16 -8 -36
-2 -54 6 -20 5 -34 -5 -40 -6 -5 -5 -8 4 -8 11 0 11 -3 1 -15 -7 -8 -8 -15 -3
-15 5 0 10 -7 10 -15 0 -8 -5 -15 -10 -15 -5 0 -4 -6 2 -14 9 -10 9 -16 1 -21
-8 -5 -8 -11 1 -21 9 -11 8 -14 -2 -14 -9 0 -10 -3 -4 -8 15 -11 18 -52 4 -52
-7 0 -10 -3 -7 -6 7 -6 48 17 48 28 0 12 52 63 62 60 5 -1 7 2 3 8 -3 5 -2 10
3 10 5 0 14 12 20 26 7 14 17 22 22 19 6 -3 10 1 10 10 0 9 5 13 10 10 6 -3
10 -1 10 5 0 6 11 21 25 34 14 13 25 29 25 36 0 7 3 10 6 7 8 -7 64 50 64 65
0 5 5 6 10 3 6 -3 10 0 10 8 0 7 12 19 26 26 15 6 24 14 21 17 -3 3 23 36 58
72 144 151 195 207 195 215 0 5 5 5 10 2 6 -3 10 -1 10 6 0 6 27 38 60 70 34
33 59 59 56 59 -2 0 30 35 72 78 42 42 76 79 75 82 -1 3 12 15 28 25 16 11 29
26 29 33 0 7 10 17 23 22 12 5 18 9 13 9 -5 1 7 16 27 35 20 18 34 36 31 39
-3 3 4 8 15 12 12 3 21 10 21 14 0 8 99 116 213 232 31 33 57 64 57 70 0 5 5
7 10 4 6 -3 10 -2 10 4 0 6 25 35 55 65 30 30 55 59 55 66 0 6 4 9 9 5 5 -3
12 4 16 15 3 11 9 19 13 17 4 -1 8 1 10 5 2 4 32 37 68 73 35 37 64 71 64 77
0 5 3 7 8 5 4 -2 15 4 25 15 9 10 14 18 11 18 -3 0 17 22 45 49 27 27 47 51
44 55 -4 3 -1 6 5 6 7 0 21 9 32 20 11 11 18 20 16 20 -3 0 31 36 74 80 43 44
76 80 74 80 -3 0 1 6 8 14 7 8 16 12 21 9 4 -2 7 1 7 7 0 6 20 30 44 55 24 24
42 46 38 49 -3 3 2 6 12 6 9 0 14 5 11 10 -3 6 1 10 9 10 8 0 21 10 27 22 7
13 27 37 46 55 18 18 33 37 33 43 0 6 4 9 8 6 5 -3 15 4 23 15 24 35 74 84 81
82 5 -2 8 3 8 10 0 14 41 53 52 49 5 -1 7 1 6 6 -3 15 15 42 28 42 8 0 14 4
14 9 0 12 53 66 62 64 4 -2 7 1 5 6 -1 5 15 25 35 45 20 20 35 36 33 36 -3 0
3 8 13 18 9 11 20 17 25 15 4 -2 7 1 7 7 0 6 16 26 35 44 19 19 35 39 35 45 0
7 5 9 10 6 6 -3 10 -2 10 3 0 5 38 48 85 96 47 47 85 89 85 92 0 9 27 33 32
29 3 -3 11 6 18 20 7 13 22 27 32 31 11 3 17 9 13 12 -3 3 10 22 29 42 59 58
169 175 202 213 17 20 34 34 37 30 4 -3 7 -1 7 6 0 7 27 39 60 71 33 33 58 60
55 60 -2 0 30 34 71 76 41 42 74 80 74 85 0 5 7 9 16 9 8 0 12 5 9 10 -3 6 1
13 9 16 9 3 16 12 16 20 0 8 3 13 8 13 18 -3 33 2 28 10 -3 4 8 20 24 35 17
14 30 31 30 37 0 5 5 7 10 4 6 -3 10 -2 10 3 0 6 25 35 55 67 30 31 55 61 55
66 0 6 4 7 10 4 6 -3 10 1 10 10 0 9 5 13 10 10 6 -3 10 -2 10 4 0 5 23 32 50
60 28 28 50 55 50 61 0 6 3 9 8 7 4 -3 13 1 20 9 7 8 11 14 8 14 -2 0 25 29
60 65 35 35 64 68 64 73 0 5 11 14 25 20 14 7 28 19 32 29 8 21 40 53 54 53 5
0 7 5 4 10 -3 6 1 13 9 16 9 3 16 13 16 21 0 8 3 12 8 10 4 -3 13 1 20 9 7 8
9 14 5 14 -4 1 3 7 17 15 14 8 21 14 17 15 -4 0 24 31 63 70 38 38 70 74 70
80 0 5 7 10 15 10 8 0 15 5 15 11 0 6 7 17 15 25 12 12 15 45 15 165 l0 149
-689 0 c-678 0 -690 0 -704 -20 -8 -11 -17 -17 -20 -13 -4 3 -7 0 -7 -8 0 -8
-13 -23 -29 -34 -16 -10 -27 -23 -25 -27 3 -4 1 -8 -5 -8 -5 0 -33 -22 -61
-50 -28 -27 -56 -50 -61 -50 -6 0 -7 -4 -4 -10 3 -5 2 -10 -3 -10 -5 0 -28
-19 -52 -42 -24 -24 -47 -42 -52 -41 -4 2 -8 -3 -8 -10 0 -8 -11 -20 -25 -27
-13 -7 -22 -17 -20 -21 3 -4 -4 -10 -15 -14 -11 -3 -20 -13 -20 -21 0 -8 -4
-13 -8 -11 -4 1 -23 -14 -42 -33 -19 -19 -38 -34 -42 -32 -4 1 -8 -4 -8 -11 0
-8 -11 -20 -25 -27 -13 -7 -22 -17 -19 -22 3 -4 0 -8 -5 -8 -6 0 -40 -29 -76
-64 -36 -35 -65 -62 -65 -59 0 3 -22 -18 -48 -46 -27 -28 -55 -51 -62 -51 -7
0 -10 -3 -7 -7 4 -3 -7 -16 -23 -28 -16 -12 -27 -25 -23 -28 3 -4 1 -7 -6 -7
-7 0 -30 -18 -51 -40 -21 -22 -43 -40 -49 -40 -6 0 -11 -6 -11 -14 0 -8 -9
-17 -19 -21 -11 -3 -23 -15 -26 -26 -4 -11 -9 -18 -11 -16 -3 3 -28 -17 -55
-44 -28 -27 -55 -49 -60 -49 -6 0 -7 -4 -4 -10 3 -5 2 -10 -3 -10 -5 0 -29
-19 -53 -42 -24 -24 -47 -42 -51 -40 -5 1 -8 -2 -8 -7 0 -13 -47 -60 -54 -54
-3 4 -6 -1 -6 -11 0 -9 -4 -14 -10 -11 -6 3 -10 2 -10 -4 0 -5 -9 -12 -20 -16
-11 -3 -19 -9 -17 -13 1 -4 -19 -29 -45 -54 -27 -25 -48 -44 -48 -40 0 3 -14
-11 -31 -31 -17 -20 -36 -34 -43 -30 -6 3 -8 3 -5 -1 7 -8 -67 -86 -81 -86 -5
0 -12 -9 -15 -21 -4 -11 -9 -18 -11 -16 -3 3 -37 -26 -77 -63 -170 -161 -192
-180 -199 -180 -5 0 -8 -7 -8 -17 0 -9 -3 -14 -6 -10 -8 8 -44 -25 -38 -35 3
-4 1 -8 -5 -8 -6 0 -21 -11 -35 -25 -14 -14 -30 -25 -36 -25 -6 0 -8 -4 -5
-10 3 -5 2 -10 -2 -10 -5 0 -31 -21 -58 -47 -27 -27 -53 -47 -57 -45 -5 1 -7
-3 -6 -9 2 -6 -2 -13 -9 -16 -7 -3 -11 11 -10 42 1 25 -2 47 -8 49 -5 3 -5 5
2 5 8 1 9 10 3 30 -6 21 -5 31 3 35 8 3 7 8 -3 15 -11 8 -11 11 -2 11 9 0 10
5 3 18 -6 11 -6 24 -1 32 6 9 5 17 -3 22 -7 4 -7 8 -2 8 11 0 11 142 0 159 -3
6 -2 11 4 11 6 0 6 11 1 30 -5 17 -5 30 0 30 5 0 5 13 0 30 -5 17 -6 30 -2 30
11 0 8 94 -3 102 -6 5 -5 8 3 8 10 0 10 5 2 20 -8 15 -8 20 2 20 9 0 9 3 -2
10 -13 9 -13 10 0 10 13 0 13 1 0 10 -11 7 -11 10 -2 10 10 0 10 5 2 20 -8 15
-8 20 2 20 9 0 9 3 -2 10 -13 9 -13 10 0 10 13 0 13 1 0 10 -13 9 -13 10 0 10
13 0 13 1 0 10 -13 9 -13 10 0 10 13 0 13 1 0 10 -13 9 -13 10 0 10 13 0 13 1
0 10 -11 7 -11 10 -2 10 10 0 10 5 2 20 -8 15 -8 20 2 20 9 0 9 3 -2 10 -12 8
-12 10 -1 10 11 0 11 3 1 15 -8 9 -8 15 -2 15 7 0 8 10 2 30 -5 17 -6 30 -2
30 4 0 7 27 7 60 0 33 -3 60 -7 60 -4 0 -3 13 2 28 4 16 4 36 -2 45 -6 11 -5
17 1 17 7 0 7 8 1 25 -6 15 -6 25 0 25 5 0 5 12 0 30 -5 17 -6 30 -2 30 11 0
8 94 -3 102 -6 5 -4 8 5 8 13 0 13 1 0 10 -13 9 -13 10 0 10 13 0 13 1 0 10
-13 9 -13 10 0 10 13 0 13 1 0 10 -11 7 -11 10 -2 10 10 0 10 5 2 20 -8 15 -8
20 2 20 9 0 9 3 -2 10 -12 8 -12 10 -1 10 11 0 11 3 1 15 -8 9 -8 15 -2 15 7
0 8 10 2 30 -5 17 -6 30 -2 30 4 0 7 27 7 60 0 33 -3 60 -7 60 -4 0 -3 13 2
28 4 16 4 36 -2 45 -6 11 -5 17 1 17 7 0 7 8 1 25 -6 15 -6 25 0 25 5 0 5 12
0 30 -5 17 -6 30 -2 30 4 0 6 20 4 45 l-4 45 -753 0 -753 0 0 -287z"/>
</g>
</svg>
